<?xml version="1.0" encoding="UTF-8" standalone="no"?>
<!-- Generator: Adobe Illustrator 23.0.3, SVG Export Plug-In . SVG Version: 6.00 Build 0)  -->

<svg
   xmlns:dc="http://purl.org/dc/elements/1.1/"
   xmlns:cc="http://creativecommons.org/ns#"
   xmlns:rdf="http://www.w3.org/1999/02/22-rdf-syntax-ns#"
   xmlns:svg="http://www.w3.org/2000/svg"
   xmlns="http://www.w3.org/2000/svg"
   xmlns:sodipodi="http://sodipodi.sourceforge.net/DTD/sodipodi-0.dtd"
   xmlns:inkscape="http://www.inkscape.org/namespaces/inkscape"
   version="1.1"
   id="Ebene_1"
   x="0px"
   y="0px"
   viewBox="0 0 425.2 425.2"
   style="enable-background:new 0 0 425.2 425.2;"
   xml:space="preserve"
   sodipodi:docname="home.svg"
   inkscape:version="0.92.3 (2405546, 2018-03-11)"><metadata
   id="metadata3845"><rdf:RDF><cc:Work
       rdf:about=""><dc:format>image/svg+xml</dc:format><dc:type
         rdf:resource="http://purl.org/dc/dcmitype/StillImage" /></cc:Work></rdf:RDF></metadata><defs
   id="defs3843" /><sodipodi:namedview
   pagecolor="#ffffff"
   bordercolor="#666666"
   borderopacity="1"
   objecttolerance="10"
   gridtolerance="10"
   guidetolerance="10"
   inkscape:pageopacity="0"
   inkscape:pageshadow="2"
   inkscape:window-width="1366"
   inkscape:window-height="728"
   id="namedview3841"
   showgrid="false"
   inkscape:zoom="0.55503291"
   inkscape:cx="212.60001"
   inkscape:cy="212.60001"
   inkscape:window-x="0"
   inkscape:window-y="0"
   inkscape:window-maximized="1"
   inkscape:current-layer="Ebene_1" />
<style
   type="text/css"
   id="style3836">
	.st0{fill:#0076BA;}
</style>
<path
   class="st0"
   d="m 243.27576,316.29545 c 3.77824,-13.54785 4.79508,-27.08573 3.17014,-40.15507 52.59636,-32.06027 142.84559,-98.16461 146.08551,-176.07222 0.2891,-6.928441 0.44859,-12.790207 0.6081,-17.954151 0.46854,-16.578415 0.67789,-24.144874 3.87794,-30.19605 4.19695,-7.925345 15.9105,-23.925561 19.0308,-26.487584 2.4723,-2.013741 2.87106,-5.662388 0.88723,-8.164606 -1.73461,-2.19317 -5.24368,-3.229943 -8.36398,-0.847363 -9.36088,7.167703 -21.62272,15.621395 -27.963,17.854449 -7.08795,2.502218 -14.51485,2.332743 -21.06447,2.183216 -9.24125,-0.209359 -19.71865,-0.438639 -23.88569,9.370841 -6.06113,14.235704 2.04364,28.740587 9.19141,41.55073 4.02747,7.197606 7.82566,14.006428 8.81258,19.878158 1.70471,10.13845 -0.12956,19.15042 -5.3035,26.05892 -4.61564,6.15087 -11.6039,10.18831 -19.17036,11.07554 -8.51351,0.9969 -21.12427,-5.27359 -30.65462,-15.26251 -8.46368,-8.86243 -12.79021,-18.65198 -11.54409,-26.17855 2.00377,-12.17214 7.44683,-14.36531 15.70115,-17.675021 6.38016,-2.57199 13.60767,-5.472964 19.05073,-13.48803 3.53899,-5.213782 3.95769,-11.175237 1.11652,-15.950379 -3.40938,-5.742142 -10.80637,-8.633134 -19.77846,-7.755869 -30.79419,3.040532 -64.12051,31.920692 -86.64045,55.616969 -28.5113,29.98671 -49.9147,61.77779 -60.23261,80.98803 -9.66991,-1.29597 -19.44948,-0.96698 -29.23903,1.00687 -22.51993,4.53588 -44.003096,17.36597 -63.881257,38.16128 -20.635799,21.57288 -38.629816,50.89167 -53.5135127,87.12893 -1.0567122,2.57199 -0.1495348,5.53278 2.1533017,7.07798 2.302836,1.54519 5.383253,1.25609 7.36708,-0.7078 37.164377,-36.74567 63.721751,-59.51484 83.579978,-71.67701 17.51549,-10.71665 28.50132,-12.39144 41.22174,-14.30549 0.89721,-0.13957 1.81436,-0.27913 2.73151,-0.41869 0.32897,-0.0499 0.64799,-0.0897 0.96699,-0.12956 0.39876,2.09349 0.90718,4.15707 1.53522,6.20071 3.90784,12.72042 12.37151,24.43397 23.2078,32.14001 13.02947,9.24125 26.36796,10.59702 33.20669,3.35954 4.76518,-5.0443 4.99446,-12.69051 0.64799,-20.96478 -6.87861,-13.0793 -26.40784,-29.43841 -48.00066,-32.26959 0.0299,-7.0082 1.57509,-14.1759 4.6256,-21.4732 15.96035,3.91781 31.32256,13.03943 45.45857,27.13557 0.0399,0.0399 0.0698,0.0698 0.10969,0.10969 13.06934,13.06934 21.56291,28.56113 25.13181,45.14952 -13.90674,8.22441 -24.16481,13.51795 -27.80349,15.34228 -2.89101,1.45546 -4.04742,4.96455 -2.59194,7.85556 1.44549,2.88104 4.96455,4.0474 7.85556,2.59192 3.51905,-1.7645 12.33163,-6.31036 24.28444,-13.2388 0.63802,9.94904 -0.42867,20.16726 -3.27979,30.37549 -5.8817,21.09438 -18.96101,40.91272 -37.81236,57.33164 -13.77715,12.00266 -30.52503,21.99158 -49.34648,29.50819 11.7634,-10.54718 22.02149,-21.28378 30.30572,-31.76118 15.32232,-19.38968 23.14798,-36.80549 23.2676,-51.79885 0.0897,-12.23195 -4.88479,-22.35046 -14.79396,-30.06646 -15.44197,-12.03257 -40.93266,5.16393 -71.39788,31.48205 3.25986,-4.61563 6.33031,-9.10167 9.1615,-13.40827 14.94351,-22.71933 23.06823,-39.77625 24.14488,-50.68233 0.31901,-3.21002 -2.03367,-6.08108 -5.24368,-6.40009 -3.21002,-0.319 -6.08109,2.03367 -6.40009,5.24368 -1.72463,17.49558 -31.21289,62.81458 -71.716883,110.21711 -1.983828,2.32277 -1.844263,5.77204 0.319008,7.93531 0.01001,0.01 0.01993,0.0199 0.03987,0.0399 2.193176,2.1533 5.672353,2.24302 7.975189,0.21933 6.958351,-6.1409 14.16593,-12.69052 21.134242,-19.04077 18.562254,-16.86752 37.742584,-34.31325 53.752774,-45.51839 19.56912,-13.70736 27.67391,-13.45813 31.04343,-10.84625 6.98826,5.43309 10.34781,12.22197 10.27802,20.74545 -0.0897,12.15219 -7.26739,27.58419 -20.74545,44.63115 -12.84006,16.24944 -30.78424,33.2366 -51.89855,49.1471 -2.21312,1.67479 -2.95082,4.66549 -1.76451,7.16771 1.18631,2.5022 3.97762,3.83806 6.66925,3.1801 32.38923,-7.90541 61.05007,-22.15109 82.90208,-41.17191 20.6059,-17.91426 34.91139,-39.69651 41.42114,-62.99402 z M 195.8533,257.00989 c 1.42556,2.72153 2.49225,6.12095 1.19628,7.49668 -1.85423,1.97385 -9.12163,1.38569 -17.92424,-4.86487 -8.78267,-6.23062 -15.64134,-15.72108 -18.81148,-26.02902 -0.21931,-0.71777 -0.41869,-1.43553 -0.6081,-2.16327 15.93043,3.3097 30.91382,15.60146 36.14754,25.56048 z M 146.55667,219.1776 c -0.56823,0.0698 -1.13647,0.13957 -1.7047,0.22928 -0.91715,0.13957 -1.81436,0.27913 -2.70159,0.40872 -24.45392,3.71844 -44.262293,6.7191 -108.871291,67.57975 11.394549,-22.18098 24.214664,-40.76317 38.270933,-55.45746 18.183425,-19.02081 37.612978,-30.71444 57.740358,-34.77181 7.30727,-1.46545 14.57466,-1.89412 21.7623,-1.28601 -2.94085,7.80572 -4.44618,15.63137 -4.49601,23.29753 z m 97.54652,44.65108 c -4.46611,-17.24635 -13.70736,-33.32632 -27.40475,-47.02371 -0.0399,-0.0399 -0.0798,-0.0798 -0.11969,-0.11969 -13.20892,-13.16903 -27.61409,-22.50997 -42.8168,-27.78357 -1.83428,-0.63802 -3.68852,-1.21622 -5.53278,-1.72463 11.14532,-19.87816 31.99048,-49.39632 56.71356,-75.39544 29.90695,-31.462116 58.07931,-49.944615 79.31324,-52.038096 4.78511,-0.478509 7.7459,0.70779 8.57333,2.093481 0.65795,1.116527 -0.29907,2.751447 -0.72774,3.399432 -3.44927,5.064241 -8.21444,6.978279 -13.74723,9.201366 -8.82255,3.538991 -19.7984,7.955247 -22.87882,26.627157 -1.8642,11.29486 3.47918,24.47387 14.6245,36.15752 12.30173,12.85998 28.18232,20.24701 40.47408,18.8015 10.7366,-1.26605 20.6358,-6.97829 27.16549,-15.68122 4.98448,-6.65927 10.32787,-18.12361 7.4867,-35.02104 -1.32587,-7.865524 -5.80194,-15.890558 -10.13845,-23.63646 -6.41006,-11.474303 -12.46124,-22.290654 -8.64311,-31.252772 0.96698,-2.282891 4.67545,-2.442399 12.86996,-2.262956 7.17767,0.159508 16.10987,0.358886 25.21156,-2.841155 1.14643,-0.408737 2.38258,-0.927116 3.68852,-1.555166 -0.58817,0.986935 -1.10655,1.90407 -1.52525,2.701596 -4.47608,8.463659 -4.72531,17.445726 -5.23372,35.32011 -0.14954,5.134027 -0.30903,10.955909 -0.58816,17.794644 -0.89722,21.493129 -9.43066,43.923339 -25.38104,66.692509 -13.26872,18.95104 -31.69141,38.19118 -54.75964,57.21201 -19.75852,16.28931 -39.89588,29.94683 -56.62383,40.33451 z"
   id="path3838"
   inkscape:connector-curvature="0"
   style="fill:#0076ba;stroke-width:1.40982735" />
</svg>