<?xml version="1.0" encoding="utf-8"?>
<!-- Generator: Adobe Illustrator 23.0.4, SVG Export Plug-In . SVG Version: 6.00 Build 0)  -->
<svg version="1.1" id="Ebene_1" xmlns="http://www.w3.org/2000/svg" xmlns:xlink="http://www.w3.org/1999/xlink" x="0px" y="0px"
	 viewBox="0 0 425.2 425.2" style="enable-background:new 0 0 425.2 425.2;" xml:space="preserve">
<style type="text/css">
	.st0{fill:none;stroke:#99BA00;stroke-width:15;stroke-linecap:round;stroke-linejoin:round;stroke-miterlimit:10;}
</style>
<path class="st0" d="M113.7,197C113.7,197,113.7,197,113.7,197C71.3,197,37,231.3,37,273.6s34.3,76.6,76.6,76.6
	c10.7,0,20.8-2.2,30.1-6.1c0.5-0.2,47.4-38.1,17.5-47.6c-30-9.5-15.5,47.9-15.2,48.4c13.5,22.6,38.2,37.7,66.5,37.7
	c36.6,0,67.3-25.4,75.4-59.6c0.1-0.6-1.2-53.4-23.1-39.7s24.6,38.3,25.2,38.4c5.8,1.5,11.9,2.3,18.1,2.3c39.9,0,72.2-32.3,72.2-72.2
	s-32.4-72.2-72.3-72.2c-9.3,0-18.2,1.8-26.4,5c-10.4-12-25.8-19.5-42.9-19.5c-7.1,0-13.8,1.3-20.1,3.6c-10.1-15.8-27.8-26.3-48-26.3
	c-23,0-42.8,13.6-51.8,33.2"/>
<path class="st0" d="M212.6,111.7c-48.2,0-87.3-13.6-87.3-30.3s39.1-30.3,87.3-30.3s87.3,13.6,87.3,30.3c0,13.1-28.5,24.7-62.3,28.8
	"/>
</svg>
