<?xml version="1.0" encoding="utf-8"?>
<!-- Generator: Adobe Illustrator 23.0.3, SVG Export Plug-In . SVG Version: 6.00 Build 0)  -->
<svg version="1.1" id="Ebene_1" xmlns="http://www.w3.org/2000/svg" xmlns:xlink="http://www.w3.org/1999/xlink" x="0px" y="0px"
	 viewBox="0 0 425.2 425.2" style="enable-background:new 0 0 425.2 425.2;" xml:space="preserve">
<style type="text/css">
	.st0{fill:#0076BA;}
</style>
<path class="st0" d="M275.37,263.78c-4.9-8.69-11.18-15.99-18.55-21.73c10.3-42.46,22.41-120.88-15.04-161.58
	c-3.33-3.62-6.19-6.64-8.7-9.31c-8.08-8.55-11.77-12.45-13.2-17.09c-1.87-6.08-4.02-19.98-3.74-22.83c0.23-2.25-1.4-4.28-3.65-4.54
	c-1.97-0.23-4.25,1.01-4.62,3.77c-1.1,8.29-3.01,18.68-5.07,22.98c-2.3,4.81-6.11,8.45-9.47,11.66c-4.74,4.53-10.11,9.67-7.28,16.68
	c4.1,10.18,15.44,13.39,25.45,16.23c5.63,1.59,10.95,3.1,14.39,5.55c5.94,4.23,9.54,9.67,10.41,15.73
	c0.77,5.4-0.71,10.93-4.06,15.17c-3.77,4.77-13.24,7.95-23.03,7.72c-8.69-0.2-15.77-2.94-18.92-7.34
	c-5.1-7.11-3.47-10.94-0.99-16.74c1.91-4.49,4.08-9.57,2.79-16.32c-0.84-4.39-3.62-7.59-7.44-8.56c-4.59-1.17-9.75,1.09-13.81,6.03
	c-13.92,16.97-16.15,48.17-15.56,71.35c0.74,29.34,5.95,56.02,10.41,70.83c-5.5,4.2-10.24,9.27-14.16,15.17
	c-9.02,13.57-13.36,30.78-12.9,51.18c0.47,21.17,6.15,44.9,16.86,70.54c0.76,1.82,2.7,2.85,4.63,2.47c1.93-0.38,3.33-2.07,3.34-4.05
	c0.21-37.07,2.11-61.81,5.97-77.87c3.41-14.16,8.08-20.51,13.5-27.85c0.38-0.52,0.77-1.05,1.16-1.58c0.14-0.19,0.28-0.37,0.42-0.55
	c1.25,0.85,2.54,1.63,3.88,2.34c8.34,4.42,18.46,6.05,27.76,4.48c11.17-1.9,18.54-7.91,18.34-14.97
	c-0.14-4.92-3.86-8.87-10.19-10.84c-10.01-3.11-28.01-1.52-40.26,7.89c-3.5-3.53-6.32-7.9-8.45-13.09
	c9.97-6.04,22.25-9.17,36.41-9.19c0.04,0,0.07,0,0.11,0c13.11,0,25.14,3.51,35.25,10.04c-2.85,11.1-5.34,18.9-6.25,21.64
	c-0.72,2.18,0.46,4.52,2.64,5.24c2.17,0.72,4.52-0.46,5.24-2.64c0.88-2.65,3.02-9.35,5.54-18.82c5.31,4.67,9.9,10.33,13.59,16.88
	c7.63,13.53,11.01,30.03,9.79,47.72c-0.89,12.93-4.28,26.34-9.95,39.55c0.61-11.19,0.37-21.72-0.73-31.13
	c-2.04-17.41-6.85-30.07-14.31-37.65c-6.09-6.18-13.66-8.76-22.5-7.66c-13.78,1.71-17.94,23.12-20.02,51.6
	c-0.68-3.95-1.39-7.74-2.13-11.32c-3.9-18.89-8.38-31.52-13.31-37.53c-1.45-1.77-4.07-2.03-5.84-0.58
	c-1.77,1.45-2.03,4.07-0.58,5.84c7.91,9.64,15.85,47.16,19.31,91.25c0.17,2.16,1.97,3.82,4.14,3.82c0.01,0,0.02,0,0.04,0
	c2.18-0.02,3.97-1.72,4.11-3.89c0.41-6.57,0.74-13.47,1.05-20.15c0.85-17.77,1.72-36.14,4.13-49.79
	c2.94-16.69,7.13-20.63,10.13-21.01c6.23-0.78,11.32,0.94,15.56,5.25c6.05,6.14,10.19,17.48,11.98,32.79
	c1.71,14.59,1.23,32.11-1.38,50.68c-0.27,1.95,0.86,3.82,2.71,4.48c1.85,0.66,3.92-0.07,4.94-1.75
	c12.28-20.21,19.51-41.73,20.93-62.23C287.54,296.83,283.79,278.73,275.37,263.78z M221.85,257.83c2.08,0.65,4.32,1.82,4.36,3.16
	c0.06,1.92-3.88,5.27-11.43,6.55c-7.53,1.28-15.73-0.04-22.49-3.62c-0.47-0.25-0.93-0.51-1.39-0.78
	C200.55,256.81,214.23,255.46,221.85,257.83z M178.15,263.58c-0.25,0.32-0.5,0.64-0.74,0.97c-0.39,0.53-0.77,1.05-1.15,1.56
	c-10.4,14.13-18.83,25.57-20.71,88.5c-5.41-16.84-8.3-32.59-8.62-47.01c-0.42-18.66,3.46-34.27,11.52-46.4
	c2.93-4.4,6.36-8.26,10.27-11.56C171.16,255.03,174.33,259.71,178.15,263.58z M249.47,237.05c-10.89-6.41-23.59-9.84-37.33-9.84
	c-0.04,0-0.08,0-0.12,0c-13.23,0.02-25.14,2.56-35.41,7.54c-1.24,0.6-2.46,1.24-3.64,1.91c-4.38-15.56-8.73-40.82-9.37-66.26
	c-0.78-30.78,4.08-54.18,13.68-65.88c2.16-2.64,4.24-3.53,5.35-3.25c0.89,0.23,1.23,1.53,1.34,2.07c0.81,4.27-0.62,7.62-2.28,11.51
	c-2.65,6.2-5.94,13.92,1.88,24.83c4.73,6.6,14.02,10.53,25.47,10.8c12.62,0.28,24.29-3.98,29.73-10.87
	c4.75-6.02,6.85-13.85,5.76-21.49c-0.84-5.84-3.91-14.27-13.81-21.32c-4.61-3.28-10.88-5.06-16.94-6.77
	c-8.97-2.54-17.43-4.93-20.01-11.34c-0.66-1.63,1.12-3.57,5.32-7.59c3.68-3.52,8.26-7.9,11.22-14.07c0.37-0.78,0.73-1.66,1.07-2.63
	c0.2,0.79,0.4,1.51,0.59,2.12c2,6.49,6.38,11.12,15.09,20.34c2.5,2.65,5.34,5.65,8.63,9.22c10.33,11.23,17.3,26.76,20.72,46.18
	c2.85,16.16,3.26,35.05,1.23,56.16C255.9,206.5,252.65,223.45,249.47,237.05z"/>
</svg>
