<?xml version="1.0" encoding="UTF-8" standalone="no"?>
<!-- Generator: Adobe Illustrator 23.0.3, SVG Export Plug-In . SVG Version: 6.00 Build 0)  -->

<svg
   xmlns:dc="http://purl.org/dc/elements/1.1/"
   xmlns:cc="http://creativecommons.org/ns#"
   xmlns:rdf="http://www.w3.org/1999/02/22-rdf-syntax-ns#"
   xmlns:svg="http://www.w3.org/2000/svg"
   xmlns="http://www.w3.org/2000/svg"
   xmlns:sodipodi="http://sodipodi.sourceforge.net/DTD/sodipodi-0.dtd"
   xmlns:inkscape="http://www.inkscape.org/namespaces/inkscape"
   version="1.1"
   id="Ebene_1"
   x="0px"
   y="0px"
   viewBox="0 0 425.2 425.2"
   style="enable-background:new 0 0 425.2 425.2;"
   xml:space="preserve"
   sodipodi:docname="l0adable.svg"
   inkscape:version="0.92.3 (2405546, 2018-03-11)"><metadata
   id="metadata3789"><rdf:RDF><cc:Work
       rdf:about=""><dc:format>image/svg+xml</dc:format><dc:type
         rdf:resource="http://purl.org/dc/dcmitype/StillImage" /></cc:Work></rdf:RDF></metadata><defs
   id="defs3787" /><sodipodi:namedview
   pagecolor="#ffffff"
   bordercolor="#666666"
   borderopacity="1"
   objecttolerance="10"
   gridtolerance="10"
   guidetolerance="10"
   inkscape:pageopacity="0"
   inkscape:pageshadow="2"
   inkscape:window-width="1366"
   inkscape:window-height="728"
   id="namedview3785"
   showgrid="false"
   inkscape:zoom="0.55503291"
   inkscape:cx="212.60001"
   inkscape:cy="212.60001"
   inkscape:window-x="0"
   inkscape:window-y="0"
   inkscape:window-maximized="1"
   inkscape:current-layer="Ebene_1" />
<style
   type="text/css"
   id="style3780">
	.st0{fill:#FFC600;}
</style>
<path
   class="st0"
   d="m 258.54622,320.12063 c 0.36002,-0.30001 0.66003,-0.64003 0.92004,-1.00005 0.0199,-0.0199 0.03,-0.0499 0.0501,-0.07 0.12997,-0.19001 0.24,-0.38003 0.35001,-0.59004 0.01,-0.01 0.01,-0.03 0.0199,-0.04 0.1,-0.20001 0.19001,-0.41003 0.26001,-0.64004 0.01,-0.01 0.01,-0.03 0.0199,-0.04 0.0801,-0.22002 0.12008,-0.44003 0.17002,-0.67005 0,-0.0199 0.01,-0.03 0.01,-0.0499 l 13.61068,-75.87374 130.81646,-103.1551 c 0,0 0,0 0,0 0.12997,-0.11003 0.26,-0.22001 0.38002,-0.34001 0,0 0,0 0,0 0,0 0,0 0,0 0.03,-0.03 0.0499,-0.0501 0.08,-0.08 0.0201,-0.0199 0.0501,-0.0501 0.07,-0.07 0.28001,-0.30001 0.52003,-0.62003 0.73004,-0.97004 0.01,-0.03 0.03,-0.0501 0.04,-0.08 0.01,-0.01 0.0199,-0.04 0.03,-0.0501 0.01,-0.01 0.0199,-0.0199 0.01,-0.03 0.12007,-0.22 0.22,-0.44002 0.31001,-0.67003 0,-0.0199 0.0199,-0.04 0.0199,-0.06 0.04,-0.1 0.07,-0.21001 0.1,-0.30001 0.01,-0.03 0.0201,-0.06 0.03,-0.09 0.0199,-0.1 0.0499,-0.19001 0.07,-0.29002 0.01,-0.03 0.01,-0.0501 0.0199,-0.08 0.04,-0.22001 0.07,-0.43003 0.0899,-0.65004 l 7.46036,-115.565688 c 0.01,-0.02998 0,-0.05997 0,-0.08005 0.01,-0.150013 0,-0.280014 -0.01,-0.430027 0,-0.120072 0,-0.240003 -0.0199,-0.36002 -0.01,-0.129972 -0.04,-0.260016 -0.06,-0.400015 -0.03,-0.129973 -0.04,-0.260016 -0.07,-0.390017 -0.04,-0.119932 -0.0801,-0.240018 -0.11003,-0.350021 -0.0499,-0.129973 -0.09,-0.270015 -0.14001,-0.400016 -0.01,-0.02998 -0.0199,-0.05997 -0.03,-0.08995 -0.04,-0.08005 -0.0899,-0.170011 -0.12998,-0.250017 -0.07,-0.129972 -0.12997,-0.250017 -0.21,-0.370019 -0.07,-0.110031 -0.15002,-0.210007 -0.22001,-0.32001 -0.0801,-0.09999 -0.15001,-0.210021 -0.23002,-0.310025 -0.0899,-0.110031 -0.18001,-0.200008 -0.28001,-0.300012 -0.0899,-0.08995 -0.18001,-0.18001 -0.28002,-0.260016 -0.11003,-0.08995 -0.21,-0.169996 -0.33001,-0.250002 -0.1,-0.08005 -0.19001,-0.150013 -0.30002,-0.22002 -0.12007,-0.08005 -0.26,-0.140015 -0.39002,-0.210007 -0.0801,-0.04002 -0.15,-0.08995 -0.24,-0.140014 -0.03,-0.0099 -0.0501,-0.0099 -0.07,-0.02998 -0.14001,-0.05997 -0.28001,-0.09999 -0.41002,-0.149999 -0.12007,-0.04002 -0.22002,-0.08005 -0.34002,-0.119931 -0.12997,-0.02998 -0.26001,-0.05997 -0.40001,-0.08005 -0.12998,-0.02998 -0.25002,-0.04992 -0.39002,-0.07001 -0.12007,-0.01994 -0.25002,-0.0099 -0.37002,-0.0099 -0.14001,0 -0.29001,-0.0099 -0.43003,-0.0099 -0.0199,0 -0.06,0 -0.08,0 l -115.56571,7.460359 c -0.12997,0.0099 -0.25,0.02998 -0.38002,0.04002 -0.0199,0 -0.04,0 -0.0499,0.0099 -0.07,0.0099 -0.12997,0.02998 -0.20002,0.04002 -0.04,0 -0.08,0.01994 -0.11993,0.01994 -0.0801,0.01994 -0.18001,0.04002 -0.26002,0.05997 -0.0499,0.0099 -0.0801,0.01994 -0.12997,0.02998 -0.0899,0.02998 -0.18001,0.05997 -0.27002,0.08995 -0.03,0.0099 -0.06,0.01994 -0.1,0.04002 -0.06,0.01994 -0.1,0.04002 -0.16001,0.05997 -0.01,0.0099 -0.03,0.0099 -0.03,0.0099 -0.15002,0.07001 -0.30002,0.140014 -0.45003,0.210007 -0.03,0.0099 -0.04,0.01994 -0.06,0.04002 0,0 -0.01,0.0099 -0.01,0.0099 -0.04,0.01994 -0.08,0.04002 -0.11004,0.07001 -0.15999,0.09999 -0.32001,0.200022 -0.47002,0.310025 -0.01,0.0099 -0.01,0.0099 -0.0199,0.01994 0,0 -0.01,0.0099 -0.01,0.0099 -0.15001,0.110031 -0.30001,0.240004 -0.43003,0.370019 -0.03,0.02998 -0.07,0.07001 -0.1,0.09999 -0.01,0.0099 -0.0199,0.01994 -0.03,0.02998 -0.01,0.0099 -0.0199,0.01994 -0.03,0.02998 0,0 -0.01,0.0099 -0.01,0.0099 -0.11003,0.110031 -0.22002,0.240003 -0.32003,0.36002 0,0 -0.01,0.0099 -0.01,0.0099 L 186.19312,153.32175 110.32938,166.92242 c -0.0201,0 -0.04,0.0199 -0.06,0.0199 -0.22001,0.04 -0.43003,0.0899 -0.64003,0.16001 -0.03,0.01 -0.07,0.03 -0.1,0.04 -0.21001,0.07 -0.41002,0.15 -0.60003,0.24001 -0.01,0.01 -0.0201,0 -0.03,0.01 -0.20001,0.1 -0.39002,0.21 -0.57003,0.33002 -0.04,0.0199 -0.06,0.04 -0.1,0.06 -0.18001,0.12007 -0.34001,0.26001 -0.51002,0.41003 -0.0201,0.0199 -0.0501,0.0499 -0.07,0.07 -0.14002,0.14002 -0.28002,0.28002 -0.41002,0.43003 -0.03,0.03 -0.0501,0.0501 -0.07,0.0899 -0.01,0.01 -0.03,0.03 -0.04,0.04 L 14.394718,285.29808 c -1.610079,2.0101 -1.510074,4.89023 0.21001,6.79034 0.06001,0.06 0.130001,0.12997 0.19001,0.19001 1.740087,1.74007 4.46022,2.04009 6.550323,0.71002 L 94.718134,245.79625 147.70075,234.4157 74.287123,345.75119 c 0,0 0,0 0,0 l -0.03,0.0499 c -0.04,0.06 -0.07001,0.11003 -0.100004,0.16001 -0.04999,0.07 -0.09001,0.15 -0.14,0.22001 -0.04,0.08 -0.07001,0.15001 -0.110003,0.23002 -0.03,0.07 -0.07001,0.12997 -0.09,0.19 -0.130001,0.29002 -0.22001,0.58003 -0.290014,0.89004 0,0.0199 0,0.04 -0.01004,0.0501 -0.03,0.12997 -0.06001,0.26001 -0.08001,0.40001 0,0.04 -0.01004,0.0899 -0.02,0.12008 -0.01004,0.11003 -0.02,0.22002 -0.03,0.33002 0,0.06 0,0.12007 -0.01004,0.17001 0,0.1 -0.01004,0.19001 0,0.28001 0.01004,0.07 0.01004,0.12998 0.01004,0.21001 0,0.0801 0.01004,0.17001 0.02,0.24 0.01004,0.07 0.03,0.15002 0.03,0.23002 0.01004,0.07 0.03,0.15002 0.03999,0.22001 0.02,0.08 0.03,0.15001 0.05,0.23002 0.01004,0.07 0.04,0.14001 0.06001,0.22 0.02,0.08 0.05001,0.15002 0.07001,0.23002 0.03,0.07 0.04999,0.15 0.08001,0.22001 0.03,0.07 0.06001,0.14001 0.09,0.21001 0.04,0.08 0.07001,0.15001 0.110003,0.23002 0.04,0.06 0.06001,0.11993 0.100004,0.17999 0.05001,0.0899 0.100004,0.16001 0.150009,0.25002 0.03,0.0501 0.06001,0.1 0.09001,0.15001 0.07001,0.0899 0.130001,0.19001 0.20001,0.28002 0.03,0.03 0.04,0.06 0.07001,0.0899 0.01004,0.01 0.01004,0.01 0.02,0.0199 0.100004,0.12007 0.200009,0.24 0.320015,0.36002 0.01004,0.01 0.01004,0.01 0.02,0.0199 0.120002,0.11993 0.250013,0.23 0.380019,0.34002 0.01004,0.01 0.01004,0.01 0.01004,0.01 0.02,0.0199 0.04999,0.03 0.07001,0.0499 0.100004,0.08 0.190009,0.15002 0.300015,0.22002 0.04999,0.03 0.09,0.0499 0.130001,0.0899 0.09001,0.0499 0.170009,0.11003 0.260013,0.16 0.05001,0.03 0.110003,0.0501 0.170008,0.0899 0.08001,0.04 0.160008,0.0801 0.240012,0.12007 0.07001,0.03 0.130001,0.0499 0.20001,0.0801 0.07001,0.03 0.160007,0.06 0.230012,0.0899 0.07001,0.03 0.140014,0.04 0.210009,0.07 0.08001,0.0199 0.150008,0.0501 0.220012,0.06 0.08001,0.0199 0.150007,0.03 0.22001,0.06 0.08001,0.0201 0.150007,0.03 0.240012,0.04 0.07001,0.01 0.140015,0.0199 0.21001,0.03 0.09001,0.01 0.17001,0.01 0.260013,0.0199 0.07001,0.01 0.130001,0.01 0.190009,0.01 0.100004,0 0.200011,0 0.290015,-0.01 0.06001,0 0.100004,0 0.160008,0 0.110002,-0.01 0.230012,-0.01 0.350018,-0.03 0.04,0 0.07001,-0.01 0.110003,-0.01 0.300014,-0.04 0.61003,-0.11003 0.910044,-0.21001 0.03,-0.01 0.07001,-0.03 0.100004,-0.04 0.120002,-0.04 0.220012,-0.08 0.330018,-0.12997 0.07001,-0.03 0.150007,-0.07 0.22001,-0.1 0.07001,-0.03 0.140014,-0.06 0.200011,-0.1 0.08001,-0.04 0.150007,-0.0899 0.23001,-0.12998 0.05,-0.03 0.100004,-0.06 0.150008,-0.0899 l 0.06001,-0.04 c 0,0 0,0 0,0 l 111.315503,-73.41362 -11.37055,52.93261 -48.4124,72.07356 c -1.41007,2.0901 -1.13006,4.87024 0.64002,6.64033 0.04,0.04 0.0899,0.0899 0.12997,0.12997 1.88009,1.76009 4.77024,1.89009 6.81035,0.31001 l 117.73581,-91.4745 c 0.03,-0.03 0.0499,-0.0501 0.09,-0.07 0.01,-0.0501 0.03,-0.07 0.0499,-0.0899 z m -47.61235,-62.13306 24.2412,-54.88271 25.68126,33.06163 z m -41.56205,-41.74206 21.77106,-49.79247 32.65162,25.29125 z m 145.39717,-96.29475 44.85221,5.53027 -99.4249,48.7224 z m -62.12307,46.96231 49.11244,-99.314899 5.58026,44.922209 z m 64.94322,-57.20283 -6.71034,-53.992657 53.31263,7.410364 7.45037,53.252633 z m -30.3415,-36.461794 -20.071,40.591994 -35.12173,71.02352 -34.94173,-27.06134 z m 31.33154,84.034144 35.72177,-17.50087 -84.80419,90.42447 -27.48135,-35.38175 z m 65.91326,-37.45185 -1.90009,-0.92003 -3.20016,-22.881143 11.69057,26.971333 z m -76.16376,-75.063699 -4.11021,-8.57043 14.76072,6.400325 12.39063,5.370261 z m -9.91049,3.610171 -61.93306,58.092878 55.83276,-70.813495 z m -47.83237,263.523008 -49.11242,13.25066 59.08292,-68.84339 z m 70.25347,-121.09597 58.13287,-61.97307 5.92029,2.86015 6.78034,3.28016 z m 62.48308,-112.08554 -8.2604,-19.060934 27.77137,-27.771377 -5.16025,79.943951 z M 395.41298,24.466036 367.6416,52.237413 364.60146,50.917349 315.46903,29.626289 Z M 102.1385,225.81598 l 7.34035,-27.22135 5.91031,-21.89107 55.58273,-9.9605 z M 42.40555,266.968 99.528366,195.22446 88.087804,237.58656 Z m 69.32343,-35.54175 63.28311,-54.30268 -19.65097,44.93222 z m 50.9125,-0.65003 47.40234,-21.34105 -98.42486,98.70487 z m -44.10218,85.30421 99.1849,-99.4649 -21.22104,48.06237 z m 86.70429,-44.14218 44.93222,-19.65096 -54.30269,63.28311 z m -45.24224,111.46551 29.67147,-44.17219 41.66206,-11.24055 z"
   id="path3782"
   inkscape:connector-curvature="0"
   style="fill:#ffc600;stroke-width:1.41428339" />
</svg>