<?xml version="1.0" encoding="utf-8"?>
<!-- Generator: Adobe Illustrator 23.0.4, SVG Export Plug-In . SVG Version: 6.00 Build 0)  -->
<svg version="1.1" id="Ebene_1" xmlns="http://www.w3.org/2000/svg" xmlns:xlink="http://www.w3.org/1999/xlink" x="0px" y="0px"
	 viewBox="0 0 425.2 425.2" style="enable-background:new 0 0 425.2 425.2;" xml:space="preserve">
<style type="text/css">
	.st0{fill:none;stroke:#0076BA;stroke-width:15;stroke-linecap:round;stroke-linejoin:round;stroke-miterlimit:10;}
</style>
<path class="st0" d="M346.7,97.7c59.5,69.4,56.5,174-9.3,239.7c-69,69-180.7,69-249.7,0s-69-180.7,0-249.7
	c65.9-65.9,170.8-68.8,240.2-8.8"/>
<path class="st0" d="M231.8,222.9v68.5c0,6.6-5.4,12-12,12h-14.4c-6.6,0-12-5.4-12-12v-91.2c0-6.6,5.4-12,12-12h14.4
	c6.6,0,12,5.4,12,12"/>
<path class="st0" d="M203.4,160.2c-6.6,0-10-5.4-10-12v-14.4c0-6.6,5.4-12,12-12h14.4c6.6,0,12,5.4,12,12v14.4c0,6.6-2.6,12-9.2,12"
	/>
</svg>
