<?xml version="1.0" encoding="UTF-8" standalone="no"?>
<!-- Generator: Adobe Illustrator 23.0.3, SVG Export Plug-In . SVG Version: 6.00 Build 0)  -->

<svg
   xmlns:dc="http://purl.org/dc/elements/1.1/"
   xmlns:cc="http://creativecommons.org/ns#"
   xmlns:rdf="http://www.w3.org/1999/02/22-rdf-syntax-ns#"
   xmlns:svg="http://www.w3.org/2000/svg"
   xmlns="http://www.w3.org/2000/svg"
   xmlns:sodipodi="http://sodipodi.sourceforge.net/DTD/sodipodi-0.dtd"
   xmlns:inkscape="http://www.inkscape.org/namespaces/inkscape"
   version="1.1"
   id="Ebene_1"
   x="0px"
   y="0px"
   viewBox="0 0 425.2 425.2"
   style="enable-background:new 0 0 425.2 425.2;"
   xml:space="preserve"
   sodipodi:docname="py.svg"
   inkscape:version="0.92.3 (2405546, 2018-03-11)"><metadata
   id="metadata11"><rdf:RDF><cc:Work
       rdf:about=""><dc:format>image/svg+xml</dc:format><dc:type
         rdf:resource="http://purl.org/dc/dcmitype/StillImage" /></cc:Work></rdf:RDF></metadata><defs
   id="defs9" /><sodipodi:namedview
   pagecolor="#ffffff"
   bordercolor="#666666"
   borderopacity="1"
   objecttolerance="10"
   gridtolerance="10"
   guidetolerance="10"
   inkscape:pageopacity="0"
   inkscape:pageshadow="2"
   inkscape:window-width="1366"
   inkscape:window-height="728"
   id="namedview7"
   showgrid="false"
   inkscape:zoom="0.55503291"
   inkscape:cx="212.60001"
   inkscape:cy="212.60001"
   inkscape:window-x="0"
   inkscape:window-y="0"
   inkscape:window-maximized="1"
   inkscape:current-layer="Ebene_1" />
<style
   type="text/css"
   id="style2">
	.st0{fill:#99BA00;}
</style>
<path
   class="st0"
   d="m 222.22366,357.47632 c 17.55779,-26.37811 29.37039,-56.88096 35.1524,-90.68913 14.98903,-9.64895 29.17705,-19.71221 42.17735,-30.22663 31.11972,-25.17199 53.29021,-50.85957 67.80048,-78.53586 15.83606,-30.23585 22.21653,-63.206188 18.97566,-98.027128 11.55481,-15.863691 20.18179,-32.482348 25.72441,-49.588995 0.9207,-2.8357629 -0.63528,-5.8832812 -3.47105,-6.8039872 -2.83576,-0.9206929 -5.88328,0.6352924 -6.80398,3.4710423 C 396.76111,22.534224 389.02721,37.61532 378.70614,52.079535 323.58373,40.266931 269.65823,61.415447 218.39355,114.98188 c -16.72915,17.48413 -33.29257,38.559 -49.63504,63.11412 -63.61128,10.8919 -113.669829,44.28575 -152.965381,102.05057 -1.049599,1.54678 -1.224533,3.52629 -0.469557,5.2388 0.27621,0.60766 0.653698,1.15087 1.114049,1.61123 0.828631,0.82863 1.905852,1.37185 3.093558,1.52836 30.28188,4.09713 59.191914,2.7529 90.072251,-4.24443 -9.44639,19.83191 -18.791525,40.88836 -28.007751,63.14172 -0.83783,2.01634 -0.368277,4.34572 1.169297,5.88329 0.0276,0.0276 0.05521,0.0552 0.08281,0.0828 1.611232,1.53757 3.995841,1.93347 6.021392,0.99436 22.207322,-10.33028 45.335362,-21.08407 68.408132,-32.40871 -8.72825,36.77284 -11.63767,70.54417 -8.19424,96.06602 0.15652,1.18771 0.70894,2.27414 1.52837,3.09356 0.46034,0.46036 1.00357,0.83784 1.61123,1.11405 1.70329,0.76419 3.692,0.58005 5.23878,-0.46955 26.59908,-18.03655 48.38289,-39.69146 64.76216,-64.30181 z M 29.889073,278.88522 C 64.489045,231.15604 107.42137,202.18155 160.6011,190.6912 c -6.6843,10.56965 -13.32256,21.71935 -19.92398,33.4583 -4.87052,2.51351 -22.63086,9.68578 -40.06894,12.83458 -2.937041,0.5248 -4.888934,3.34214 -4.354929,6.26997 0.202563,1.12326 0.745773,2.10842 1.491546,2.85418 1.206119,1.20612 2.973863,1.8322 4.778433,1.50075 10.7446,-1.94269 21.48918,-5.248 29.82153,-8.29552 -5.57945,10.38551 -11.12207,21.19454 -16.63708,32.41791 -29.766281,7.65102 -57.313684,9.97119 -85.818607,7.15385 z m 67.100745,59.84561 C 138.2925,241.65204 181.74041,168.9258 226.21031,122.46719 c 24.36176,-25.448208 49.41406,-43.392683 74.45715,-53.281024 23.14645,-9.151771 46.90975,-11.665285 70.76514,-7.494498 -1.74013,2.145224 -3.51709,4.272049 -5.36769,6.398874 -8.83874,10.1093 -19.03091,19.841119 -30.45682,29.149414 C 323.8047,86.081044 307.41621,79.746622 294.19492,81.58802 c -2.95545,0.414319 -5.01782,3.139601 -4.6035,6.09505 0.16573,1.215325 0.72735,2.274129 1.52837,3.075148 1.16008,1.160079 2.82654,1.776947 4.56667,1.528356 9.39116,-1.307395 22.01398,3.581536 31.28544,11.711326 -10.6433,8.04694 -22.25336,15.75321 -34.7841,23.07281 -0.75498,0.44193 -1.51917,0.89307 -2.26493,1.34421 -4.64033,-7.91802 -7.56817,-16.22277 -8.1298,-23.37663 -0.23017,-2.97386 -2.83576,-5.19275 -5.80962,-4.96257 -2.97388,0.23017 -5.19276,2.83576 -4.96259,5.80962 0.70895,8.97684 4.15237,18.88361 9.79627,28.35763 -22.46513,15.30206 -42.61008,35.83372 -59.99293,61.18984 -3.90377,5.68994 -7.38402,11.25097 -10.46837,16.48977 -9.28068,-1.36264 -17.78796,-0.60766 -27.73155,2.3754 -2.86337,0.85625 -4.47461,3.86695 -3.61835,6.73034 0.267,0.89308 0.73656,1.65726 1.34423,2.26493 1.36264,1.36264 3.40659,1.95188 5.37689,1.36264 6.78558,-2.03476 12.76093,-2.83577 18.902,-2.45828 -5.59786,10.58807 -9.12414,19.0125 -10.60648,23.33059 -0.69053,2.01633 -0.11966,4.15236 1.29819,5.57023 0.57084,0.57084 1.27057,1.01278 2.0808,1.28899 2.82654,0.96673 5.89248,-0.55242 6.85001,-3.36977 1.65726,-4.8613 6.15028,-15.3573 13.51591,-28.35762 0.046,-0.0828 0.0921,-0.16572 0.13809,-0.24859 3.34215,-5.88328 7.27356,-12.26374 11.81261,-18.86517 13.81974,-20.15416 29.41643,-37.09508 46.55068,-50.58336 1.7033,1.9611 3.48947,3.91298 5.3677,5.79122 7.33799,7.33799 16.19513,13.67242 27.85123,15.56907 2.94624,0.47876 5.71755,-1.51916 6.19631,-4.46541 0.47877,-2.94624 -1.51915,-5.71755 -4.46539,-6.19632 -7.83518,-1.27978 -15.14555,-4.74162 -26.24001,-17.18029 4.12474,-2.89101 8.34156,-5.59787 12.65044,-8.10218 10.16455,-5.92932 19.74906,-12.12564 28.7351,-18.53374 8.10218,10.03566 9.48323,20.80787 9.71341,24.15002 0.1013,1.35344 0.68132,2.55955 1.56519,3.44343 1.06801,1.068 2.56876,1.68487 4.19841,1.56519 2.97386,-0.21176 5.22037,-2.78973 5.00861,-5.7636 -0.36828,-5.28482 -2.28335,-17.88002 -11.79419,-29.82154 1.07723,-0.81942 2.14524,-1.64806 3.19483,-2.47668 0.16573,-0.11055 0.33146,-0.23939 0.48798,-0.3775 0.009,-0.009 0.0184,-0.0184 0.0276,-0.0276 13.39621,-10.578867 25.24565,-21.728562 35.42861,-33.366232 0.70894,-0.819431 1.40867,-1.648055 2.11762,-2.467486 0.85624,28.569388 -5.2388,54.956708 -18.51532,80.294418 -13.81052,26.35048 -35.07874,50.93322 -65.02916,75.15688 -53.42833,43.22696 -127.93151,78.95018 -195.778025,110.57629 z m 61.889572,68.88691 c -1.75855,-25.14437 2.1084,-57.27686 11.09445,-91.89524 10.74459,-5.38612 21.43394,-10.90112 31.97597,-16.54502 -3.52629,11.40749 -9.207,23.80935 -12.39263,29.5177 -1.20612,2.16365 -0.77339,4.78765 0.89307,6.45412 0.34066,0.34066 0.74578,0.6537 1.18771,0.89308 2.60558,1.4455 5.89249,0.51559 7.3472,-2.08079 3.9314,-7.04336 12.97268,-26.67272 15.91894,-41.84589 10.21978,-5.67153 20.23701,-11.49035 29.98724,-17.46572 -6.01217,28.45889 -16.62786,54.26617 -31.66293,76.85099 -14.0407,21.09327 -32.29821,39.94004 -54.34902,56.11677 z"
   id="path4"
   inkscape:connector-curvature="0"
   style="fill:#99ba00;stroke-width:1.30206895" />
</svg>