<?xml version="1.0" encoding="utf-8"?>
<!-- Generator: Adobe Illustrator 23.0.3, SVG Export Plug-In . SVG Version: 6.00 Build 0)  -->
<svg version="1.1" id="Ebene_1" xmlns="http://www.w3.org/2000/svg" xmlns:xlink="http://www.w3.org/1999/xlink" x="0px" y="0px"
	 viewBox="0 0 425.2 425.2" style="enable-background:new 0 0 425.2 425.2;" xml:space="preserve">
<style type="text/css">
	.st0{fill:#99BA00;}
</style>
<path class="st0" d="M289.91,308.73c-4.79-23.86-14.94-46.84-30.16-68.34c2.9-13.38,5.14-26.55,6.49-39.32
	c3.23-30.57,1.32-56.56-5.83-79.47c-7.82-25.02-22.26-46.39-42.93-63.54c-2.34-14.89-6.68-28.6-12.96-40.9
	c-1.04-2.04-3.54-2.85-5.58-1.81c-2.04,1.04-2.85,3.54-1.81,5.58c5.67,11.12,9.66,23.51,11.91,36.97
	c-36.35,23.52-54.15,64.29-52.9,121.22c0.41,18.58,2.86,39.02,7.32,61.23c-28.63,40.46-37.68,85.78-27.65,138.49
	c0.27,1.41,1.25,2.58,2.59,3.1c0.48,0.18,0.98,0.27,1.48,0.27c0.9,0,1.78-0.29,2.51-0.85c18.67-14.22,33.64-30.65,46.61-51.22
	c5.64,15.9,12,32.41,19.08,49.5c0.64,1.55,2.16,2.56,3.83,2.56c0.03,0,0.06,0,0.09,0c1.71-0.04,3.22-1.12,3.81-2.73
	c6.45-17.67,13.17-36.07,19.55-54.75c15.23,24.71,31.99,44.63,47.72,56.62c0.73,0.56,1.62,0.85,2.51,0.85c0.5,0,1-0.09,1.48-0.27
	c1.34-0.51,2.32-1.69,2.59-3.1C294.31,354.58,294.38,330.99,289.91,308.73z M142.78,370.5c-7.13-44.71,0.45-83.76,23.09-118.88
	c2.11,9.37,4.56,19.03,7.35,28.99c-1.28,4.01-7.03,17.55-14.79,28.73c-1.31,1.88-0.84,4.47,1.04,5.77c0.72,0.5,1.55,0.74,2.36,0.74
	c1.31,0,2.61-0.62,3.41-1.78c4.78-6.89,8.82-14.52,11.69-20.7c2.61,8.67,5.47,17.55,8.57,26.64
	C173.49,340.33,159.79,356.55,142.78,370.5z M211.72,366.56c-30.29-75.15-46.19-138.24-47.27-187.62
	c-0.59-27.05,3.27-50.4,11.5-69.37c7.6-17.54,19.14-31.81,34.36-42.5c0.22,2.11,0.41,4.23,0.56,6.39
	c0.69,10.29,0.44,21.11-0.71,32.37c-12.47,0.35-24.81,5.81-30.99,13.99c-1.38,1.83-1.02,4.43,0.81,5.81
	c0.75,0.57,1.63,0.84,2.5,0.84c1.26,0,2.5-0.57,3.31-1.65c4.39-5.81,13.9-10.01,23.35-10.63c-1.41,10.15-3.53,20.64-6.36,31.42
	c-0.17,0.65-0.34,1.31-0.5,1.96c-6.82-1.78-12.92-4.7-17.11-8.28c-1.74-1.49-4.36-1.28-5.85,0.46c-1.49,1.74-1.28,4.36,0.46,5.85
	c5.26,4.49,12.51,8,20.72,10.08c-3.89,20.51-3.68,42.6,0.65,65.81c0.97,5.21,2.1,10.12,3.27,14.64c-5.78,4.3-9.99,9.33-13.77,16.35
	c-1.09,2.02-0.33,4.53,1.69,5.62c0.63,0.34,1.3,0.5,1.96,0.5c1.48,0,2.91-0.79,3.66-2.18c2.58-4.79,5.39-8.47,8.93-11.6
	c2.71,8.79,5.37,15.28,6.91,18.43c0.72,1.47,2.19,2.32,3.73,2.32c0.62,0,1.24-0.14,1.83-0.43c2.06-1.01,2.9-3.5,1.89-5.55
	c-1.74-3.54-5-11.68-8.06-22.74c-0.02-0.07-0.04-0.14-0.06-0.21c-1.38-5.01-2.71-10.61-3.83-16.66
	c-3.44-18.45-4.17-36.12-2.19-52.75c1.99,0.14,4.02,0.23,6.06,0.23c7.97,0,16.22-1.37,23.58-6.67c1.86-1.34,2.28-3.93,0.94-5.79
	c-1.34-1.86-3.93-2.28-5.79-0.94c-4.95,3.56-10.8,5.65-23.58,4.92c0.67-3.81,1.49-7.57,2.47-11.27c2.3-8.74,4.14-17.31,5.54-25.67
	c9.85,1.05,16.45,6.15,18.39,7.84c0.79,0.68,1.76,1.02,2.72,1.02c1.16,0,2.31-0.48,3.13-1.43c1.5-1.73,1.32-4.35-0.41-5.85
	c-3.07-2.67-10.95-8.47-22.6-9.79c0.14-1.03,0.27-2.06,0.39-3.08c0.03-0.15,0.05-0.31,0.06-0.47c0-0.01,0-0.02,0-0.03
	c1.53-13.02,1.91-25.51,1.12-37.36c-0.06-0.83-0.13-1.66-0.19-2.49c15.98,15.05,27,32.69,33.55,53.66
	c6.81,21.81,8.61,46.71,5.5,76.13C252.45,252.68,231.39,312.54,211.72,366.56z M282.74,370.36c-14.61-12.7-29.96-32.25-43.88-55.93
	c2.91-8.76,5.72-17.56,8.38-26.35c4.28,8.11,7.93,17.93,9.3,22.76c0.52,1.83,2.18,3.02,3.99,3.02c0.37,0,0.76-0.05,1.13-0.16
	c2.2-0.63,3.48-2.92,2.86-5.12c-1.69-5.96-7.44-21.53-14.08-31.37c2.47-8.63,4.75-17.23,6.8-25.77
	c12.19,18.72,20.44,38.5,24.54,58.93C285.61,329.45,285.93,349.6,282.74,370.36z"/>
</svg>
